<?xml version="1.0" encoding="UTF-8"?>
<svg xmlns="http://www.w3.org/2000/svg" xmlns:xlink="http://www.w3.org/1999/xlink" viewBox="0 0 461.72 118.75">
  <defs>
    <style>
      .cls-1 {
        fill: url(#linear-gradient-3);
      }

      .cls-1, .cls-2, .cls-3, .cls-4, .cls-5, .cls-6 {
        mix-blend-mode: multiply;
      }

      .cls-7 {
        fill: #0095da;
      }

      .cls-2 {
        fill: url(#linear-gradient);
      }

      .cls-3 {
        fill: url(#linear-gradient-4);
      }

      .cls-8 {
        isolation: isolate;
      }

      .cls-4 {
        fill: url(#linear-gradient-6);
      }

      .cls-5 {
        fill: url(#linear-gradient-5);
      }

      .cls-6 {
        fill: url(#linear-gradient-2);
      }

      .cls-9 {
        fill: #2a3b8f;
      }
    </style>
    <linearGradient id="linear-gradient" x1="1023.51" y1="-4598.55" x2="982.67" y2="-4635.68" gradientTransform="translate(4652.47 1060.14) rotate(-90)" gradientUnits="userSpaceOnUse">
      <stop offset="0" stop-color="#8cc541"/>
      <stop offset=".33" stop-color="#aed46f"/>
      <stop offset=".4" stop-color="#a5d27b"/>
      <stop offset=".55" stop-color="#90cc9d"/>
      <stop offset=".74" stop-color="#6ec4d3"/>
      <stop offset=".77" stop-color="#67c3df"/>
      <stop offset=".81" stop-color="#5fbbdb" stop-opacity=".98"/>
      <stop offset=".88" stop-color="#4ca7d2" stop-opacity=".93"/>
      <stop offset=".96" stop-color="#2e87c3" stop-opacity=".85"/>
      <stop offset="1" stop-color="#1d76bb" stop-opacity=".8"/>
    </linearGradient>
    <linearGradient id="linear-gradient-2" x1="1012.78" y1="-4586.75" x2="971.94" y2="-4623.88" xlink:href="#linear-gradient"/>
    <linearGradient id="linear-gradient-3" x1="1009.64" y1="-4583.29" x2="968.8" y2="-4620.42" xlink:href="#linear-gradient"/>
    <linearGradient id="linear-gradient-4" x1="1074.47" y1="-4643.24" x2="1020.26" y2="-4575.66" gradientTransform="translate(4652.47 1060.14) rotate(-90)" gradientUnits="userSpaceOnUse">
      <stop offset=".1" stop-color="#1d76bb"/>
      <stop offset=".31" stop-color="#4ac7f4"/>
      <stop offset=".61" stop-color="#74be45"/>
      <stop offset="1" stop-color="#007947" stop-opacity=".8"/>
    </linearGradient>
    <linearGradient id="linear-gradient-5" x1="1065.46" y1="-4650.47" x2="1011.25" y2="-4582.89" xlink:href="#linear-gradient-4"/>
    <linearGradient id="linear-gradient-6" x1="1054.03" y1="-4659.63" x2="999.82" y2="-4592.06" xlink:href="#linear-gradient-4"/>
  </defs>
  <g class="cls-8">
    <g id="Layer_2" data-name="Layer 2">
      <g id="Layer_1-2" data-name="Layer 1">
        <g>
          <g>
            <path class="cls-9" d="m82.69,81.42l6.85-56.4h8.7c1.74,0,3.1.41,4.08,1.23.98.82,1.47,2.15,1.47,4v3.32c2.39-3.19,4.91-5.56,7.56-7.1,2.65-1.54,5.42-2.31,8.32-2.31,3.19,0,5.84,1.04,7.94,3.1,2.1,2.07,3.44,5.08,4.03,9.03,2.5-4.17,5.24-7.23,8.21-9.19,2.97-1.96,6.33-2.94,10.06-2.94,2.1,0,4.01.37,5.74,1.11,1.72.75,3.19,1.84,4.4,3.29,1.21,1.45,2.16,3.23,2.83,5.33.67,2.1,1.01,4.53,1.01,7.29,0,.69-.03,1.4-.08,2.15-.05.74-.12,1.5-.19,2.26l-4.24,35.84h-16.64l4.24-35.84c.07-.62.13-1.18.16-1.69.04-.51.05-1,.05-1.47,0-1.85-.29-3.13-.87-3.86-.58-.73-1.45-1.09-2.61-1.09s-2.2.3-3.24.9c-1.03.6-2.01,1.47-2.94,2.61-.92,1.14-1.77,2.52-2.53,4.13-.76,1.61-1.43,3.42-2.01,5.41l-3.64,30.89h-16.64l4.24-35.84c.07-.62.13-1.18.16-1.69.04-.51.05-1,.05-1.47,0-1.85-.29-3.13-.87-3.86-.58-.73-1.45-1.09-2.61-1.09s-2.21.31-3.26.93c-1.05.62-2.04,1.5-2.96,2.66-.92,1.16-1.77,2.56-2.53,4.21s-1.43,3.49-2.01,5.52l-3.7,30.62h-16.53Z"/>
            <path class="cls-9" d="m215.39,81.42h-9.03c-1.05,0-1.93-.14-2.64-.41-.71-.28-1.27-.64-1.69-1.12-.42-.47-.71-1.03-.87-1.68-.16-.66-.24-1.36-.24-2.12v-4.03c-2.32,3.19-4.9,5.69-7.72,7.5-2.83,1.82-5.95,2.72-9.35,2.72-2.03,0-3.99-.41-5.87-1.22-1.89-.81-3.55-2.05-5-3.7-1.45-1.65-2.61-3.75-3.48-6.31-.87-2.56-1.3-5.57-1.3-9.05,0-5.11.93-9.96,2.8-14.55,1.87-4.59,4.48-8.6,7.83-12.05,3.35-3.44,7.33-6.18,11.94-8.21,4.6-2.03,9.66-3.05,15.17-3.05,2.68,0,5.4.18,8.16.54,2.76.36,5.47,1.02,8.16,1.96l-6.85,54.77Zm-24.8-12.45c1.23,0,2.43-.47,3.59-1.39,1.16-.93,2.26-2.19,3.29-3.78,1.03-1.6,1.98-3.46,2.85-5.6.87-2.14,1.61-4.42,2.23-6.85l1.96-15.61h-.98c-2.75,0-5.27.62-7.53,1.85-2.27,1.23-4.21,2.91-5.85,5.03-1.63,2.12-2.89,4.59-3.78,7.4-.89,2.81-1.33,5.81-1.33,9,0,1.81.14,3.36.44,4.62.29,1.27.68,2.29,1.17,3.07.49.78,1.07,1.35,1.74,1.72.67.36,1.41.54,2.2.54Z"/>
            <path class="cls-9" d="m225.18,81.42l6.85-56.4h8.7c1.74,0,3.1.41,4.08,1.23.98.82,1.47,2.15,1.47,4v6.42c2.18-3.84,4.53-6.8,7.07-8.87,2.54-2.07,5.17-3.1,7.89-3.1,1.52,0,3.03.34,4.51,1.03l-3.05,15.61c-1.85-.8-3.61-1.2-5.27-1.2-2.79,0-5.27,1.26-7.42,3.78-2.16,2.52-3.91,6.57-5.25,12.16l-3.04,25.34h-16.53Z"/>
            <path class="cls-9" d="m265.53,81.42L275.43,0h16.64l-9.9,81.42h-16.64Z"/>
            <path class="cls-9" d="m339.39,81.42h-9.03c-1.05,0-1.93-.14-2.64-.41-.71-.28-1.27-.64-1.69-1.12-.42-.47-.71-1.03-.87-1.68-.17-.66-.25-1.36-.25-2.12v-4.03c-2.32,3.19-4.89,5.69-7.72,7.5-2.83,1.82-5.95,2.72-9.35,2.72-2.03,0-3.99-.41-5.87-1.22-1.89-.81-3.55-2.05-5-3.7-1.45-1.65-2.61-3.75-3.48-6.31-.87-2.56-1.31-5.57-1.31-9.05,0-5.11.93-9.96,2.8-14.55,1.87-4.59,4.48-8.6,7.83-12.05,3.35-3.44,7.33-6.18,11.94-8.21,4.6-2.03,9.66-3.05,15.17-3.05,2.68,0,5.4.18,8.16.54,2.75.36,5.47,1.02,8.16,1.96l-6.85,54.77Zm-24.8-12.45c1.23,0,2.43-.47,3.59-1.39,1.16-.93,2.26-2.19,3.29-3.78,1.03-1.6,1.98-3.46,2.85-5.6.87-2.14,1.61-4.42,2.23-6.85l1.96-15.61h-.98c-2.75,0-5.27.62-7.53,1.85-2.27,1.23-4.21,2.91-5.85,5.03-1.63,2.12-2.89,4.59-3.78,7.4-.89,2.81-1.33,5.81-1.33,9,0,1.81.14,3.36.43,4.62.29,1.27.68,2.29,1.17,3.07.49.78,1.07,1.35,1.74,1.72.67.36,1.4.54,2.2.54Z"/>
            <path class="cls-9" d="m349.61,81.42L359.51,0h16.53l-4.19,33.89c2.5-3.05,5.23-5.43,8.18-7.15,2.96-1.72,6.08-2.59,9.38-2.59,2.32,0,4.44.41,6.36,1.22,1.92.82,3.58,2.09,4.98,3.84,1.39,1.74,2.48,3.96,3.26,6.66.78,2.7,1.17,5.92,1.17,9.66,0,4.93-.75,9.62-2.26,14.06-1.5,4.44-3.53,8.35-6.06,11.72-2.54,3.37-5.47,6.05-8.78,8.02-3.32,1.98-6.79,2.96-10.42,2.96-2.79,0-5.25-.53-7.37-1.6-2.12-1.07-3.92-2.47-5.41-4.21l-.16.54c-.51,1.53-1.16,2.64-1.96,3.35-.8.71-2.1,1.06-3.91,1.06h-9.24Zm33.06-44.49c-1.2,0-2.44.45-3.72,1.36-1.29.91-2.53,2.15-3.73,3.73-1.2,1.58-2.31,3.43-3.34,5.55-1.03,2.12-1.9,4.38-2.58,6.77l-1.63,13.16c1.05.87,2.23,1.49,3.54,1.85,1.31.36,2.56.54,3.75.54,1.96,0,3.76-.65,5.41-1.96,1.65-1.3,3.07-3.02,4.27-5.14,1.2-2.12,2.13-4.54,2.8-7.26.67-2.72,1.01-5.49,1.01-8.32,0-3.59-.53-6.2-1.58-7.83-1.05-1.63-2.45-2.45-4.19-2.45Z"/>
            <path class="cls-9" d="m446.63,36.87c-.51.65-.98,1.12-1.42,1.41-.43.29-1.02.44-1.74.44s-1.44-.16-2.15-.49c-.71-.33-1.47-.7-2.29-1.11-.82-.42-1.74-.79-2.78-1.11-1.03-.33-2.22-.49-3.56-.49-2.5,0-4.29.48-5.36,1.44-1.07.96-1.61,2.2-1.61,3.73,0,.98.3,1.81.9,2.5.6.69,1.39,1.3,2.37,1.85.97.54,2.09,1.04,3.34,1.49,1.25.46,2.53.96,3.84,1.52,1.3.57,2.58,1.21,3.84,1.93,1.25.73,2.36,1.62,3.34,2.67.98,1.05,1.77,2.3,2.37,3.75.6,1.45.9,3.17.9,5.17,0,2.83-.56,5.5-1.69,8.02-1.12,2.52-2.74,4.71-4.84,6.58-2.1,1.87-4.65,3.36-7.64,4.46-2.99,1.11-6.35,1.66-10.09,1.66-1.78,0-3.54-.18-5.28-.54-1.74-.36-3.38-.85-4.92-1.46-1.54-.62-2.95-1.35-4.22-2.2-1.27-.85-2.3-1.77-3.1-2.75l4.13-6.2c.51-.72,1.1-1.3,1.77-1.71.67-.42,1.5-.63,2.47-.63.91,0,1.69.22,2.34.65.65.44,1.36.91,2.12,1.42.76.51,1.67.98,2.72,1.41,1.05.44,2.43.65,4.13.65,2.39,0,4.17-.53,5.33-1.6,1.16-1.07,1.74-2.33,1.74-3.78,0-1.12-.3-2.05-.9-2.77-.6-.73-1.38-1.35-2.37-1.88-.98-.52-2.08-1-3.32-1.41-1.23-.42-2.5-.88-3.81-1.39-1.3-.51-2.57-1.1-3.81-1.77-1.23-.67-2.34-1.51-3.32-2.52-.98-1.02-1.77-2.27-2.36-3.75-.6-1.49-.9-3.28-.9-5.39,0-2.61.48-5.14,1.44-7.61.96-2.47,2.39-4.65,4.3-6.55,1.9-1.9,4.27-3.43,7.1-4.6,2.83-1.16,6.12-1.74,9.9-1.74s7.13.65,10.09,1.96c2.96,1.3,5.39,2.9,7.32,4.79l-4.35,5.98Z"/>
          </g>
          <g>
            <path class="cls-2" d="m17.89,94.93c-14.3-.9-9.9-7.17-6-10.83,13.6-12.77,31.76-19.42,44.59-33.23,3.11-3.36,9.95-12.16,6.18-21.43l-1.4-3.08q-2.31-4.24-3.76-6.29c-.76-.99-1.74-2.32-2.54-3.27,9.16,12.08.48,24.69-32.04,46.58-38.75,26.07-19.78,30.95-5.03,31.55"/>
            <path class="cls-6" d="m17.89,94.93c-.16-.04-.37-.09-.52-.13-.04-.18-.1-.41-.15-.58.98-1.12,2.72-2.13,10.37-6.02,18.7-9.49,34.43-18.35,37.55-30.76l.13-.62c.77-4.84.83-5.24.92-8.54-.05-1.97-.15-4.58-.33-6.53.75,15.21-14.37,25.4-37.51,39.21-9.36,5.58-22.17,13.23-10.45,13.97"/>
            <path class="cls-1" d="m17.89,94.93c8.89-.6,26.65-6.25,34.24-13.74,1.2-1.28,2.78-3.01,3.9-4.36q2.8-3.85,4.07-6.09l.77-1.42c-7.62,12.75-30.2,21.51-42.98,25.61"/>
            <path class="cls-3" d="m57.5,20.07c2.6,4,2.71,4.15,3.76,6.29l1.4,3.08c-4.62-9.51-14.96-16.76-39.5-27.71C20.19.42,19.82.23,19.53,0c7.89.91,27.55,7.67,35.44,16.79.76.98,1.84,2.24,2.54,3.27"/>
            <path class="cls-5" d="m66.19,48.28c-.29,5.04-.31,5.35-.92,8.54l-.13.62c2.14-15.22-13.27-26.68-35.26-41.23C18.68,8.81,5.98.42,19.53,0h0c-.35.05-.81.16-1.12.33.11,1.21.15,1.71,10.95,7.91,19.35,11.11,34.32,20.63,36.5,33.5.16,1.96.38,4.57.33,6.53"/>
            <path class="cls-4" d="m60.11,70.75q-2.52,4.09-4.07,6.09c-1.14,1.34-2.68,3.1-3.9,4.36,11.85-13.01-1.37-26.77-31.66-49.18C-22.67.09,15.08-.08,19.53,0h0C2.46.42,8.81,8.54,12.33,12.02c12.78,12.61,30.12,19.5,41.88,33.39,5.8,6.84,11.12,15.03,6.66,23.92l-.77,1.42"/>
          </g>
          <g>
            <path class="cls-7" d="m230.02,108.57c-.17.81-.25,1.42-.25,1.89,0,.83.25,1.22.7,1.78l-1.86,1.39c-.64-.64-1.06-1.28-1.06-2.5l.03-.47c-1.33,1.76-2.84,2.59-4.87,2.59-2.62,0-3.87-1.67-3.87-4.65,0-2.81,1.11-5.68,3.09-7.68,1.33-1.36,3.31-2,4.81-2s2.36.17,3.06.53l1.42-6.7,2.12.36-3.31,15.47Zm-3.34-7.85c-1.09,0-2.48.61-3.34,1.53-1.25,1.36-2.2,4.4-2.2,6.46,0,1.78.7,2.7,2.03,2.7,1.61,0,3.37-.92,4.76-3.31l1.42-6.79c-.86-.44-1.37-.58-2.67-.58Z"/>
            <path class="cls-7" d="m242.96,101.34c-.25-.09-.44-.11-.86-.11-1.31,0-2.73,1.14-4.06,3.14l-1.83,8.68h-2.12l2-9.41c.25-1.17.36-1.95.36-2.59,0-.5-.05-.89-.19-1.34l2.03-.95c.22.56.33,1,.33,1.56,0,.47-.08,1-.22,1.75,1.34-2.03,3.17-3.26,4.48-3.26.5,0,.75.05,1.03.14l-.95,2.36Z"/>
            <path class="cls-7" d="m246.22,113.05h-2.31l2.95-13.8,2.37-.36-3.01,14.17Zm2.73-16.44c-.95,0-1.7-.75-1.7-1.67s.75-1.73,1.7-1.73,1.7.75,1.7,1.7-.75,1.7-1.7,1.7Z"/>
            <path class="cls-7" d="m255.93,113.19h-2.14l-2.03-13.89,2.2-.47,1.19,9.54c.11.89.17,1.75.17,2.37h.06c.33-.81.61-1.36,1.17-2.34l5.12-9.21,2.42.03-8.15,13.97Z"/>
            <path class="cls-7" d="m265.95,113.05h-2.31l2.95-13.8,2.37-.36-3.01,14.17Zm2.73-16.44c-.95,0-1.7-.75-1.7-1.67s.75-1.73,1.7-1.73,1.7.75,1.7,1.7-.75,1.7-1.7,1.7Z"/>
            <path class="cls-7" d="m283.39,102.53l-2.25,10.52h-2.2l2-9.38c.17-.72.22-1.17.22-1.5,0-.92-.47-1.39-1.34-1.39-1.11,0-2.98.89-4.84,3.23l-1.92,9.04h-2.12l2.12-9.91c.22-.97.3-1.59.3-2.12,0-.44-.06-.83-.2-1.31l2.03-.95c.19.56.33,1.03.33,1.67,0,.39-.06.83-.2,1.39,1.5-2,3.59-2.95,5.37-2.95s2.76,1.06,2.76,2.75c0,.28-.03.58-.08.89Z"/>
            <path class="cls-7" d="m298.72,102.98l-1.31,6.26c-.28,1.28-.58,3.12-.78,3.9-1,4.09-3.12,5.59-7.18,5.59-1.67,0-3.12-.36-4.87-1.25l.81-1.75c1.45.83,2.64,1.17,4.26,1.17,2.78,0,4.12-.72,4.76-3.45l.58-2.53c-1.39,1.81-2.81,2.4-4.87,2.4-2.34,0-3.79-1.7-3.79-4.68s1.42-6.12,3.23-7.76c1.53-1.39,3.26-2.09,5.34-2.09s3.23.34,4.62,1.23c-.2.53-.56,1.81-.81,2.98Zm-4.01-2.28c-1.33,0-2.51.39-3.59,1.42-1.31,1.22-2.45,4.43-2.45,6.46s.83,2.87,2.25,2.87c1.59,0,3.17-.89,4.62-3.34l1.47-6.99c-.64-.31-1.34-.42-2.31-.42Z"/>
            <path class="cls-7" d="m319.12,108.57c-.17.81-.25,1.42-.25,1.89,0,.83.25,1.22.7,1.78l-1.86,1.39c-.64-.64-1.06-1.28-1.06-2.5l.03-.47c-1.33,1.76-2.84,2.59-4.87,2.59-2.62,0-3.87-1.67-3.87-4.65,0-2.81,1.11-5.68,3.09-7.68,1.33-1.36,3.31-2,4.81-2s2.36.17,3.06.53l1.42-6.7,2.12.36-3.31,15.47Zm-3.34-7.85c-1.09,0-2.48.61-3.34,1.53-1.25,1.36-2.2,4.4-2.2,6.46,0,1.78.7,2.7,2.03,2.7,1.61,0,3.37-.92,4.76-3.31l1.42-6.79c-.86-.44-1.37-.58-2.67-.58Z"/>
            <path class="cls-7" d="m325.49,113.05h-2.31l2.95-13.8,2.37-.36-3,14.17Zm2.73-16.44c-.95,0-1.7-.75-1.7-1.67s.75-1.73,1.7-1.73,1.7.75,1.7,1.7-.75,1.7-1.7,1.7Z"/>
            <path class="cls-7" d="m343.21,102.98l-1.31,6.26c-.28,1.28-.58,3.12-.78,3.9-1,4.09-3.12,5.59-7.18,5.59-1.67,0-3.12-.36-4.87-1.25l.81-1.75c1.45.83,2.64,1.17,4.26,1.17,2.78,0,4.12-.72,4.76-3.45l.59-2.53c-1.39,1.81-2.81,2.4-4.87,2.4-2.34,0-3.79-1.7-3.79-4.68s1.42-6.12,3.23-7.76c1.53-1.39,3.26-2.09,5.34-2.09s3.23.34,4.62,1.23c-.2.53-.56,1.81-.81,2.98Zm-4.01-2.28c-1.34,0-2.51.39-3.59,1.42-1.31,1.22-2.45,4.43-2.45,6.46s.83,2.87,2.25,2.87c1.59,0,3.17-.89,4.62-3.34l1.48-6.99c-.64-.31-1.34-.42-2.31-.42Z"/>
            <path class="cls-7" d="m348.39,113.05h-2.31l2.95-13.8,2.37-.36-3.01,14.17Zm2.73-16.44c-.95,0-1.7-.75-1.7-1.67s.75-1.73,1.7-1.73,1.7.75,1.7,1.7-.75,1.7-1.7,1.7Z"/>
            <path class="cls-7" d="m361.1,100.83h-3l-1.72,8.13c-.14.61-.2,1.11-.2,1.5,0,1.03.42,1.37,1.39,1.37.61,0,1-.08,1.45-.28v1.39c-.78.36-1.58.56-2.56.56-1.62,0-2.45-.81-2.45-2.25,0-.5.08-1.31.22-2.03l1.75-8.38h-1.81l.3-1.64h1.84c.28-1.11.64-2.45.97-3.51l2.36-.5c-.36,1.03-.89,2.81-1.14,4.01h3.45l-.86,1.64Z"/>
            <path class="cls-7" d="m373.12,102.84l-1.19,5.73c-.17.81-.25,1.42-.25,1.89,0,.86.28,1.28.72,1.78l-1.72,1.34c-.72-.75-1.06-1.48-1.06-2.53,0-.17,0-.33.03-.5-.95,1.67-2.67,2.75-4.81,2.75-1.7,0-3.31-1.34-3.31-4.4,0-2.73,1.06-5.9,2.89-7.76,1.45-1.48,3.39-2.34,5.54-2.34,1.5,0,2.84.39,3.9,1.14-.19.67-.53,1.97-.72,2.89Zm-3.37-2.28c-1.72,0-2.87.61-4.03,2-1.39,1.67-1.95,4.32-1.95,6.38,0,1.84.7,2.5,2,2.5,1.48,0,3.15-1.39,4.15-3.34l1.5-7.15c-.42-.25-1-.39-1.67-.39Z"/>
            <path class="cls-7" d="m381.72,94.13c0,1.11-.19,2.42-.42,3.48l-2.64,12.38c-.09.39-.14.75-.14,1,0,.44.19.67.58.67.17,0,.39,0,.53-.06l.14,1.42c-.59.25-1.11.3-1.7.3-1.14,0-1.83-.56-1.83-1.64,0-.36.05-.75.14-1.19l2.73-12.88c.19-1,.31-1.87.31-2.59,0-.64-.08-1.16-.19-1.58l2.31-.89c.14.42.19.97.19,1.59Z"/>
            <path class="cls-7" d="m400.65,102.84l-1.2,5.73c-.17.81-.25,1.42-.25,1.89,0,.86.28,1.28.72,1.78l-1.72,1.34c-.72-.75-1.06-1.48-1.06-2.53,0-.17,0-.33.02-.5-.95,1.67-2.67,2.75-4.81,2.75-1.7,0-3.31-1.34-3.31-4.4,0-2.73,1.06-5.9,2.89-7.76,1.45-1.48,3.4-2.34,5.54-2.34,1.5,0,2.84.39,3.89,1.14-.19.67-.53,1.97-.72,2.89Zm-3.37-2.28c-1.72,0-2.87.61-4.04,2-1.39,1.67-1.95,4.32-1.95,6.38,0,1.84.69,2.5,2,2.5,1.47,0,3.14-1.39,4.15-3.34l1.5-7.15c-.42-.25-1-.39-1.67-.39Z"/>
            <path class="cls-7" d="m416.06,102.98l-1.31,6.26c-.28,1.28-.58,3.12-.78,3.9-1,4.09-3.12,5.59-7.18,5.59-1.67,0-3.12-.36-4.87-1.25l.81-1.75c1.45.83,2.64,1.17,4.26,1.17,2.78,0,4.12-.72,4.76-3.45l.58-2.53c-1.39,1.81-2.81,2.4-4.87,2.4-2.34,0-3.78-1.7-3.78-4.68s1.42-6.12,3.23-7.76c1.53-1.39,3.25-2.09,5.34-2.09s3.23.34,4.62,1.23c-.2.53-.56,1.81-.81,2.98Zm-4.01-2.28c-1.34,0-2.5.39-3.59,1.42-1.31,1.22-2.45,4.43-2.45,6.46s.83,2.87,2.25,2.87c1.59,0,3.17-.89,4.62-3.34l1.47-6.99c-.64-.31-1.33-.42-2.31-.42Z"/>
            <path class="cls-7" d="m421.24,113.05h-2.31l2.95-13.8,2.36-.36-3,14.17Zm2.73-16.44c-.94,0-1.7-.75-1.7-1.67s.75-1.73,1.7-1.73,1.7.75,1.7,1.7-.75,1.7-1.7,1.7Z"/>
            <path class="cls-7" d="m432.14,94.13c0,1.11-.2,2.42-.42,3.48l-2.64,12.38c-.08.39-.14.75-.14,1,0,.44.2.67.59.67.17,0,.39,0,.53-.06l.14,1.42c-.58.25-1.11.3-1.7.3-1.14,0-1.83-.56-1.83-1.64,0-.36.06-.75.14-1.19l2.73-12.88c.19-1,.31-1.87.31-2.59,0-.64-.08-1.16-.2-1.58l2.31-.89c.14.42.2.97.2,1.59Z"/>
            <path class="cls-7" d="m435.76,113.05h-2.31l2.95-13.8,2.37-.36-3,14.17Zm2.73-16.44c-.94,0-1.7-.75-1.7-1.67s.75-1.73,1.7-1.73,1.7.75,1.7,1.7-.75,1.7-1.7,1.7Z"/>
            <path class="cls-7" d="m448.48,100.83h-3.01l-1.72,8.13c-.14.61-.2,1.11-.2,1.5,0,1.03.42,1.37,1.39,1.37.62,0,1-.08,1.45-.28v1.39c-.78.36-1.59.56-2.56.56-1.62,0-2.45-.81-2.45-2.25,0-.5.09-1.31.22-2.03l1.75-8.38h-1.81l.3-1.64h1.84c.28-1.11.64-2.45.97-3.51l2.36-.5c-.36,1.03-.89,2.81-1.14,4.01h3.45l-.86,1.64Z"/>
            <path class="cls-7" d="m455.32,110.93c-1.67,3.06-2.75,5.43-4.28,6.62-.67.53-1.7,1-2.7,1.2l-.5-1.48c.81-.08,1.8-.69,2.45-1.28.61-.56,1.19-1.48,1.78-2.95l-.89.11c.03-.89-.17-3.59-.34-4.97l-1.14-8.83,2.28-.47.95,8.88c.14,1.31.08,3.45.08,3.45h.06s.92-1.78,1.5-2.92l4.65-9.1h2.5l-6.4,11.74Z"/>
          </g>
        </g>
      </g>
    </g>
  </g>
</svg>