<?xml version="1.0" standalone="no"?>
<!DOCTYPE svg PUBLIC "-//W3C//DTD SVG 20010904//EN"
 "http://www.w3.org/TR/2001/REC-SVG-20010904/DTD/svg10.dtd">
<svg version="1.0" xmlns="http://www.w3.org/2000/svg"
 width="985.000000pt" height="343.000000pt" viewBox="0 0 985.000000 343.000000"
 preserveAspectRatio="xMidYMid meet">

<g transform="translate(0.000000,343.000000) scale(0.100000,-0.100000)"
fill="#000000" stroke="none">
<path d="M643 3409 c-30 -19 -47 -21 -185 -20 -153 1 -153 1 -205 -29 -99 -57
-135 -159 -100 -280 14 -49 14 -53 -4 -71 -10 -10 -33 -19 -49 -19 -17 0 -32
-6 -34 -12 -45 -145 -66 -228 -66 -258 0 -64 29 -139 71 -185 21 -23 39 -51
39 -61 0 -11 7 -30 16 -42 8 -12 18 -34 20 -49 7 -36 28 -75 54 -96 19 -16 21
-26 18 -101 l-3 -83 58 -66 c55 -63 75 -75 148 -91 49 -11 51 -75 9 -239 -42
-161 -60 -285 -67 -467 -15 -389 73 -741 248 -995 58 -84 137 -164 147 -149
150 222 286 375 412 463 103 73 383 212 397 198 2 -2 -48 -34 -110 -71 -62
-37 -151 -98 -198 -135 -147 -119 -311 -298 -386 -423 -47 -77 -48 -84 -21
-101 59 -37 60 -37 148 90 162 232 292 365 482 490 211 139 485 234 720 250
l97 6 8 56 c19 136 1 527 -32 687 -6 28 2 41 105 158 126 145 172 205 165 217
-3 4 -83 -19 -178 -52 l-172 -59 -42 84 -42 84 48 133 c56 156 64 186 52 193
-5 3 -57 -32 -115 -79 l-106 -85 -72 60 c-80 67 -139 103 -241 145 -63 26 -68
31 -78 69 -25 99 -60 205 -69 211 -15 9 -28 -26 -46 -121 -10 -49 -18 -90 -19
-91 -1 -2 -71 -7 -156 -12 -216 -14 -338 -50 -475 -141 l-32 -21 -31 86 c-17
47 -31 93 -31 101 0 9 15 48 34 87 49 103 53 145 22 241 -15 48 -23 90 -19
108 7 36 -11 58 -48 58 -71 0 -29 52 72 90 69 26 127 73 145 116 22 53 18 132
-8 171 -33 47 -54 51 -92 15 -39 -37 -68 -52 -100 -52 -20 0 -26 5 -26 21 0
17 -36 90 -43 89 -1 0 -17 -10 -34 -21z m-3 -134 c0 -48 95 -60 181 -24 27 12
52 20 54 17 2 -2 -3 -20 -13 -39 -14 -28 -36 -43 -129 -89 -62 -30 -118 -61
-125 -67 -6 -7 -24 -13 -40 -13 -15 0 -38 -5 -52 -11 -21 -10 -29 -8 -59 15
-41 32 -69 33 -115 4 l-35 -21 -28 31 c-23 26 -29 42 -29 78 0 25 7 58 15 74
28 54 75 67 258 69 l117 1 0 -25z m-195 -296 c32 -19 43 -21 80 -12 46 10 75
2 75 -22 0 -23 30 -45 61 -45 24 0 29 -4 29 -24 0 -13 7 -43 15 -66 8 -23 15
-54 15 -69 l0 -26 -19 32 c-51 82 -178 129 -326 120 -146 -9 -225 -47 -258
-126 -25 -59 -27 -8 -3 80 22 82 24 84 55 87 22 2 35 11 43 28 10 21 18 24 67
24 39 0 65 6 86 20 37 25 36 25 80 -1z m20 -240 c43 -12 85 -44 85 -66 0 -16
2 -16 -50 2 -56 20 -162 19 -200 0 -24 -12 -30 -13 -30 -2 0 24 25 48 65 62
49 17 78 18 130 4z m10 -125 c75 -19 102 -42 138 -118 67 -142 310 -797 332
-895 13 -58 33 -130 44 -159 26 -65 26 -62 -1 -62 -36 0 -122 -55 -157 -99
-17 -22 -47 -72 -65 -113 -21 -44 -36 -67 -39 -58 -3 8 -40 123 -82 255 l-77
240 -14 225 c-17 278 -18 452 -3 467 8 8 5 14 -12 24 -35 18 -39 27 -39 106 0
85 -12 123 -38 123 -27 0 -72 38 -72 61 0 23 4 23 85 3z m-135 -34 c0 -11 -7
-23 -15 -26 -24 -10 -17 -24 10 -24 34 0 44 -28 18 -49 -12 -9 -24 -26 -27
-38 -4 -12 -25 -36 -47 -53 l-39 -32 -9 24 c-9 23 0 51 19 63 15 9 2 25 -21
25 -26 0 -35 26 -17 48 8 9 18 25 21 35 7 19 59 46 90 47 11 0 17 -7 17 -20z
m1244 -335 c24 -137 43 -251 41 -253 -1 -1 -38 3 -81 10 l-80 13 33 245 c18
135 33 247 33 250 4 14 13 -35 54 -265z m-1131 114 c21 -34 30 -66 36 -120 4
-41 10 -81 12 -89 3 -10 -2 -14 -16 -12 -40 6 -111 5 -149 -2 -37 -7 -38 -7
-31 16 5 13 11 67 14 121 6 95 7 98 36 117 44 28 65 21 98 -31z m712 -294 c66
-60 122 -113 123 -118 2 -4 -16 -30 -41 -56 l-46 -49 -108 186 c-59 103 -110
191 -112 197 -2 5 12 -4 30 -21 19 -17 88 -79 154 -139z m861 -50 l-95 -197
-43 31 c-24 17 -53 39 -66 49 l-23 18 156 153 c87 84 159 150 162 148 2 -3
-39 -94 -91 -202z m-345 -132 c100 -48 189 -113 258 -189 63 -69 69 -101 9
-50 l-42 36 -30 -30 -30 -30 43 -44 c24 -24 40 -49 37 -55 -11 -17 -73 -13
-114 8 -20 10 -56 40 -80 65 -44 46 -74 60 -174 75 -43 7 -235 -3 -244 -12 -3
-2 5 -16 16 -30 20 -25 24 -26 98 -21 113 8 138 -3 327 -147 30 -23 48 -29 75
-27 28 2 35 -1 38 -17 6 -33 18 -38 46 -20 21 14 26 15 26 3 0 -21 -49 -64
-92 -83 -21 -8 -38 -22 -38 -31 0 -17 54 -159 99 -257 17 -38 31 -72 31 -77 0
-4 -42 -18 -92 -31 -51 -12 -142 -37 -203 -55 -74 -22 -113 -29 -121 -23 -7 6
-18 32 -24 59 -12 48 -11 50 26 110 20 33 35 62 32 65 -3 3 -27 -2 -54 -10
-86 -26 -109 -18 -116 40 -2 23 2 32 22 42 38 19 32 38 -12 36 -21 -1 -38 2
-38 7 0 5 21 10 48 12 58 4 58 19 -1 37 -45 14 -45 14 -25 31 28 22 18 46 -21
55 -17 4 -33 10 -35 13 -2 4 0 34 5 66 11 70 3 86 -36 68 -24 -11 -25 -10 -25
24 0 21 10 50 25 72 29 42 32 62 9 62 -17 0 -78 -56 -86 -80 -3 -8 -9 -11 -14
-7 -5 4 2 36 14 70 12 34 22 75 22 91 0 83 50 159 132 201 48 24 62 26 139 23
76 -4 96 -9 170 -45z m659 -69 c-30 -30 -98 -96 -151 -144 l-96 -89 -25 64
c-22 53 -24 66 -12 76 16 13 315 149 329 149 5 0 -15 -25 -45 -56z m-1238
-165 c39 -20 40 -22 35 -61 -3 -22 -8 -42 -11 -45 -11 -12 -75 39 -85 69 -23
64 -9 73 61 37z m923 -390 c3 -26 32 -102 66 -170 l60 -124 -27 -3 c-67 -9
-90 19 -169 207 -30 71 -28 82 21 140 25 30 29 32 35 15 4 -11 10 -40 14 -65z
m-862 39 c16 -13 97 -146 97 -160 0 -4 -21 -10 -47 -14 -139 -20 -205 -110
-242 -329 -22 -133 -51 -237 -86 -305 -23 -45 -115 -174 -120 -168 -2 2 4 41
12 88 11 65 14 135 10 294 -5 232 5 320 46 410 53 116 160 196 263 196 27 0
58 -6 67 -12z m121 -276 c13 -21 40 -69 59 -108 19 -38 44 -80 55 -94 l20 -25
-147 -75 c-80 -42 -171 -93 -201 -113 -30 -20 -57 -37 -60 -37 -3 0 9 73 27
163 43 210 68 262 142 300 30 15 60 27 68 27 7 0 24 -17 37 -38z"/>
<path d="M1450 1871 c-63 -13 -71 -27 -49 -90 l11 -31 99 0 99 0 0 34 c0 19 3
41 6 50 4 11 -2 19 -17 24 -38 14 -111 21 -149 13z"/>
<path d="M1666 1783 c-16 -56 -16 -57 79 -105 l59 -30 23 26 c13 15 23 33 23
39 0 11 -97 81 -147 106 -21 11 -23 8 -37 -36z"/>
<path d="M1311 1797 c-6 -8 -18 -33 -26 -57 -19 -55 -7 -70 33 -42 48 35 52
43 37 80 -15 35 -26 40 -44 19z"/>
<path d="M1445 1544 c-22 -8 -47 -21 -55 -29 -13 -13 -10 -20 23 -53 37 -36
38 -37 53 -17 13 17 27 20 89 20 91 0 110 13 65 45 -27 19 -111 51 -129 49 -3
0 -24 -7 -46 -15z"/>
<path d="M3644 2420 c-65 -26 -84 -112 -35 -161 41 -40 91 -40 132 0 42 42 40
92 -5 137 -34 34 -54 40 -92 24z"/>
<path d="M3976 2419 c-94 -8 -125 -22 -92 -43 66 -40 60 0 66 -459 3 -229 8
-418 11 -421 3 -3 52 -11 110 -17 252 -27 425 28 491 155 16 30 23 65 26 134
5 109 -11 163 -66 224 -55 61 -104 82 -192 82 -79 0 -111 -11 -177 -62 l-33
-24 0 221 0 221 -27 -1 c-16 -1 -68 -5 -117 -10z m344 -448 c67 -47 100 -152
82 -259 -20 -121 -68 -175 -168 -187 -104 -14 -114 9 -114 260 0 134 1 143 23
163 54 51 124 60 177 23z"/>
<path d="M2903 2361 c-50 -3 -94 -9 -98 -13 -4 -4 11 -16 32 -27 71 -36 68
-18 68 -391 0 -373 3 -355 -67 -391 -21 -11 -36 -24 -33 -29 4 -6 133 -10 329
-10 l324 0 6 30 c3 17 9 67 12 111 9 100 -1 101 -64 11 -56 -79 -86 -95 -184
-96 -68 -1 -80 2 -100 22 l-23 23 0 329 c0 318 1 329 21 357 12 15 35 32 53
37 36 10 41 31 9 40 -26 7 -149 5 -285 -3z"/>
<path d="M5963 2155 c-68 -69 -123 -129 -123 -135 0 -5 20 -10 44 -10 l44 0 4
-202 c3 -177 6 -208 23 -242 31 -61 64 -80 149 -84 85 -5 153 19 181 62 25 38
10 48 -35 25 -44 -23 -74 -21 -111 10 -23 18 -24 23 -27 226 l-4 208 95 -5
c64 -3 104 -11 121 -21 24 -16 90 -139 205 -383 l62 -132 -31 -65 c-67 -141
-114 -181 -216 -179 l-61 0 -11 -62 c-21 -112 -22 -110 51 -104 80 7 119 27
162 86 19 26 93 182 166 347 203 463 237 525 285 525 31 0 12 29 -22 36 -41 8
-181 0 -191 -10 -4 -4 8 -19 26 -33 31 -24 33 -29 27 -70 -6 -47 -84 -243 -96
-243 -8 0 -98 190 -121 253 -13 38 -13 40 13 62 20 17 23 25 13 28 -7 3 -117
9 -244 13 l-231 7 0 92 c0 146 -3 146 -147 0z"/>
<path d="M3618 2070 c-138 -13 -156 -24 -88 -55 53 -24 60 -52 59 -240 -2
-190 -5 -204 -51 -234 -21 -13 -35 -28 -32 -32 7 -12 331 -11 339 0 3 6 -5 15
-17 22 -13 6 -33 21 -45 32 -23 20 -23 24 -23 269 l0 248 -32 -1 c-18 -1 -68
-5 -110 -9z"/>
<path d="M4877 2066 c-145 -40 -228 -169 -214 -333 18 -233 305 -339 505 -187
33 26 92 99 92 116 0 17 -22 7 -63 -31 -100 -91 -191 -101 -274 -28 -43 38
-69 92 -79 165 l-7 52 195 0 c242 0 242 0 203 87 -31 71 -73 114 -135 142 -61
27 -162 34 -223 17z m135 -63 c31 -34 58 -85 58 -111 0 -14 -9 -21 -31 -26
-68 -13 -199 -4 -199 15 0 4 9 33 21 64 32 85 101 111 151 58z"/>
<path d="M5398 2070 c-93 -9 -128 -17 -128 -30 0 -5 11 -12 24 -16 13 -3 35
-17 48 -31 22 -24 23 -31 26 -215 4 -209 3 -212 -61 -244 -15 -8 -25 -19 -22
-24 8 -13 342 -13 350 0 3 5 -10 16 -29 24 -54 22 -60 44 -61 195 l0 135 45
34 c53 41 91 39 156 -8 29 -20 43 -26 47 -17 12 34 29 146 24 161 -11 28 -70
50 -113 41 -38 -7 -107 -65 -146 -125 -17 -24 -17 -23 -17 53 l-1 77 -32 -1
c-18 -1 -68 -5 -110 -9z"/>
<path d="M2810 1215 l0 -25 1670 0 1670 0 0 25 0 25 -1670 0 -1670 0 0 -25z"/>
<path d="M6620 1215 l0 -25 303 0 c322 0 407 5 407 25 0 13 -245 25 -537 25
l-173 0 0 -25z"/>
<path d="M5460 963 c-47 -6 -56 -17 -26 -33 14 -7 28 -20 31 -29 3 -8 9 -115
12 -237 l6 -221 -31 -23 c-17 -13 -29 -27 -26 -32 6 -9 194 -11 219 -2 13 5
11 10 -13 24 -39 24 -42 45 -42 275 0 106 -3 213 -6 239 l-7 46 -41 -2 c-22 0
-57 -3 -76 -5z"/>
<path d="M2984 924 c-58 -21 -118 -76 -146 -132 -32 -66 -33 -207 -1 -268 24
-45 84 -103 135 -131 44 -24 253 -24 311 0 l37 16 0 79 c0 71 2 81 25 102 35
33 19 40 -90 40 -112 0 -130 -9 -92 -44 23 -22 27 -33 27 -84 0 -82 -13 -96
-82 -90 -74 6 -104 28 -136 96 -47 104 -33 270 29 346 63 75 170 65 250 -23
25 -28 49 -48 52 -44 9 9 9 115 -1 128 -4 6 -27 11 -52 12 -25 1 -85 4 -135 7
-67 4 -101 2 -131 -10z"/>
<path d="M5968 924 c-25 -8 -22 -17 11 -36 26 -14 30 -23 36 -80 4 -34 5 -132
3 -216 l-3 -154 -28 -22 c-15 -12 -24 -25 -21 -29 9 -9 228 -9 237 0 4 3 -6
18 -23 32 l-30 26 -7 206 c-6 198 -5 207 14 226 11 11 27 23 34 25 8 3 10 9 6
14 -9 10 -200 16 -229 8z"/>
<path d="M3516 735 c-90 -32 -136 -119 -117 -221 22 -115 164 -178 278 -123
45 22 93 71 93 96 0 10 -10 7 -37 -15 -58 -44 -82 -54 -117 -48 -54 10 -106
80 -106 142 l0 24 125 0 c139 0 149 5 121 58 -30 59 -106 103 -176 102 -14 -1
-43 -7 -64 -15z m86 -26 c16 -9 48 -64 48 -84 0 -3 -30 -5 -67 -3 -79 4 -89
17 -48 67 29 34 37 36 67 20z"/>
<path d="M3828 741 c-60 -9 -67 -16 -32 -33 38 -18 47 -61 41 -181 -5 -86 -8
-101 -26 -114 -12 -8 -19 -19 -16 -24 7 -10 205 -13 205 -2 0 4 -10 17 -22 30
-19 20 -23 38 -26 118 -5 104 -1 115 51 142 24 12 34 13 53 3 31 -17 35 -30
41 -137 l6 -92 -31 -30 c-26 -23 -29 -30 -16 -35 27 -10 192 -7 199 4 4 6 -4
19 -17 29 -21 17 -23 30 -29 130 -5 82 -11 118 -26 143 -37 64 -149 74 -205
18 l-28 -28 0 34 c0 33 -1 34 -37 33 -21 -1 -59 -5 -85 -8z"/>
<path d="M4398 741 c-103 -33 -153 -145 -114 -254 18 -50 42 -76 91 -98 77
-36 183 -15 240 47 33 36 35 64 3 40 -84 -61 -107 -67 -157 -42 -38 20 -60 57
-67 111 l-7 44 128 3 c79 2 130 7 132 14 6 18 -58 104 -89 120 -36 19 -123 27
-160 15z m80 -37 c12 -8 29 -29 37 -45 19 -37 11 -41 -66 -37 -47 3 -54 6 -57
25 -2 14 6 32 22 48 29 29 34 30 64 9z"/>
<path d="M4693 741 c-54 -9 -62 -17 -30 -32 35 -16 39 -28 45 -151 4 -105 4
-107 -22 -133 -14 -14 -26 -30 -26 -35 0 -11 203 -14 213 -4 3 3 -7 17 -24 31
-28 24 -29 28 -29 109 0 71 3 87 20 104 24 24 51 25 91 5 37 -20 45 -15 53 31
16 84 -53 112 -123 48 l-40 -35 -3 33 c-3 31 -5 33 -43 34 -22 1 -59 -1 -82
-5z"/>
<path d="M5115 736 c-35 -15 -85 -70 -85 -92 0 -11 10 -9 43 11 56 32 100 33
132 0 42 -41 36 -49 -78 -89 -118 -43 -150 -104 -88 -167 35 -34 86 -39 152
-12 38 15 43 15 69 0 16 -10 40 -17 55 -17 32 0 81 24 88 44 9 22 -4 28 -24
10 -26 -24 -33 -4 -39 126 -5 85 -11 122 -24 142 -33 50 -135 73 -201 44z
m115 -215 c0 -77 -13 -101 -55 -101 -29 0 -36 4 -41 25 -10 41 4 73 43 100 21
14 41 25 45 25 5 0 8 -22 8 -49z"/>
<path d="M6296 741 c-60 -6 -84 -24 -47 -34 31 -8 41 -48 41 -167 0 -103 -1
-109 -25 -128 -13 -11 -21 -22 -18 -26 8 -7 203 -8 203 -1 0 3 -9 18 -20 33
-14 20 -21 51 -26 117 -6 87 -5 91 19 118 17 18 36 27 56 27 47 0 63 -34 69
-144 4 -91 4 -93 -23 -114 -14 -12 -24 -26 -20 -32 8 -13 192 -14 200 -1 3 5
-4 16 -16 25 -18 12 -22 29 -30 130 -10 140 -22 168 -83 191 -55 21 -87 15
-138 -26 l-38 -30 0 36 c0 39 8 37 -104 26z"/>
<path d="M6812 740 c-44 -10 -70 -36 -78 -76 -11 -62 5 -85 102 -139 69 -39
90 -56 92 -75 5 -28 -20 -50 -57 -50 -17 0 -41 16 -74 51 -27 28 -51 48 -55
45 -3 -4 -8 -34 -10 -67 l-5 -61 107 4 c103 3 106 4 137 34 66 66 43 151 -53
200 -106 53 -133 85 -86 103 34 12 67 1 103 -36 41 -43 59 -36 52 19 -3 22 -7
41 -9 43 -9 8 -137 12 -166 5z"/>
<path d="M7081 741 c-55 -6 -78 -24 -42 -34 21 -5 22 -11 39 -191 9 -90 12
-102 36 -123 44 -37 144 -25 198 24 17 15 18 14 18 -17 l0 -33 69 5 c86 6 102
15 71 38 -22 16 -23 26 -29 168 -3 88 -11 156 -17 162 -13 13 -131 -3 -148
-20 -7 -7 -4 -10 8 -10 27 0 46 -60 46 -143 0 -64 -3 -77 -24 -100 -31 -34
-73 -45 -93 -25 -17 18 -32 122 -33 231 0 87 11 80 -99 68z"/>
<path d="M7560 739 c-56 -10 -92 -29 -53 -29 40 0 48 -25 48 -156 0 -117 -1
-124 -23 -139 -12 -9 -20 -21 -17 -26 7 -10 198 -13 208 -3 3 4 -7 19 -23 34
-28 26 -30 33 -30 104 0 68 3 80 25 101 29 29 42 31 90 8 19 -9 37 -14 40 -11
3 3 6 29 8 58 2 50 0 53 -26 62 -39 14 -82 -6 -113 -51 l-24 -36 0 36 c0 59
-11 64 -110 48z"/>
<path d="M8515 745 c-5 -2 -22 -6 -37 -9 -14 -3 -41 -18 -58 -33 -28 -23 -32
-24 -30 -7 5 41 1 44 -59 44 -33 0 -72 -5 -87 -10 l-28 -11 32 -19 c38 -24 46
-58 40 -182 -4 -79 -7 -92 -27 -107 -12 -9 -19 -20 -15 -24 9 -8 188 -10 196
-1 3 3 -5 16 -19 30 -24 24 -25 29 -21 129 3 117 13 134 76 135 28 0 35 -5 48
-35 8 -21 14 -68 14 -120 0 -79 -2 -88 -25 -109 -13 -13 -22 -26 -18 -29 9 -9
198 -9 207 0 3 4 -6 17 -21 29 -27 21 -28 26 -33 137 -5 106 -7 118 -30 142
-20 22 -80 58 -92 54 -2 0 -7 -2 -13 -4z"/>
<path d="M9253 741 c-119 -30 -176 -153 -124 -267 29 -63 81 -97 155 -102 52
-3 69 0 114 25 52 27 94 75 79 89 -4 4 -20 -4 -35 -18 -56 -52 -97 -60 -148
-29 -36 22 -64 75 -64 121 l0 33 125 -5 c119 -6 125 -5 125 14 0 39 -44 99
-90 123 -34 17 -99 25 -137 16z m80 -48 c8 -10 18 -30 22 -45 6 -24 4 -27 -27
-33 -59 -11 -93 -3 -96 23 -2 13 4 34 12 48 20 29 65 32 89 7z"/>
<path d="M7914 721 c-29 -18 -63 -75 -51 -87 3 -4 18 3 32 15 63 49 154 30
155 -32 0 -18 -10 -24 -115 -62 -97 -36 -123 -98 -66 -156 35 -34 86 -39 150
-13 37 14 42 14 63 0 51 -36 147 -8 148 43 0 11 -5 10 -20 -4 -11 -10 -23 -15
-28 -11 -4 4 -10 59 -13 121 -9 170 -36 205 -159 205 -46 0 -74 -6 -96 -19z
m144 -221 c-2 -43 -8 -56 -28 -72 -16 -12 -33 -16 -44 -12 -24 9 -38 49 -26
78 11 29 81 79 93 67 4 -4 7 -32 5 -61z"/>
<path d="M8810 721 c-101 -53 -129 -196 -58 -287 66 -84 240 -84 317 -1 36 40
21 49 -28 17 -54 -37 -104 -39 -152 -7 -85 57 -75 237 16 267 49 16 84 1 135
-59 l40 -46 0 68 0 67 -118 0 c-95 0 -124 -4 -152 -19z"/>
<path d="M9590 510 c-13 -8 -13 -10 2 -10 23 0 38 -30 38 -74 0 -19 4 -37 9
-40 9 -6 21 40 21 80 0 14 8 25 21 29 17 6 19 9 8 16 -19 12 -80 11 -99 -1z"/>
<path d="M9727 513 c-11 -10 -8 -121 2 -128 5 -3 11 9 13 27 l3 33 18 -33 c20
-37 31 -34 51 11 l14 32 1 -38 c1 -59 21 -34 21 26 0 82 -15 92 -43 28 l-23
-53 -12 40 c-12 41 -34 67 -45 55z"/>
</g>
</svg>
